<svg width="214" height="50" viewBox="0 0 214 50" fill="none" xmlns="http://www.w3.org/2000/svg">
<path fill-rule="evenodd" clip-rule="evenodd" d="M12.9105 0C9.36378 0 6.73943 3.10423 6.8569 6.47078C6.96963 9.70512 6.82319 13.894 5.7686 17.31C4.71086 20.7361 2.92197 22.9064 0 23.185V26.3309C2.92197 26.6095 4.71086 28.7798 5.7686 32.2059C6.82319 35.622 6.96963 39.8108 6.8569 43.0451C6.73943 46.4112 9.36377 49.5159 12.911 49.5159H49.2525C52.7992 49.5159 55.423 46.4117 55.3056 43.0451C55.1929 39.8108 55.3393 35.622 56.3939 32.2059C57.4521 28.7798 59.2363 26.6095 62.1583 26.3309V23.185C59.2363 22.9064 57.4521 20.7361 56.3939 17.31C55.3393 13.8945 55.1929 9.70512 55.3056 6.47078C55.423 3.10475 52.7992 0 49.2525 0H12.91H12.9105ZM42.1412 30.4802C42.1412 35.1157 38.6835 37.9271 32.9455 37.9271H23.1777C22.8982 37.9271 22.6303 37.8161 22.4327 37.6185C22.2351 37.4209 22.1241 37.153 22.1241 36.8736V12.6424C22.1241 12.3629 22.2351 12.095 22.4327 11.8974C22.6303 11.6998 22.8982 11.5888 23.1777 11.5888H32.8896C37.6742 11.5888 40.8143 14.1805 40.8143 18.1597C40.8143 20.9526 38.702 23.4532 36.0107 23.8909V24.0368C39.6744 24.4387 42.1412 26.9756 42.1412 30.4802ZM31.8803 14.9285H26.3109V22.7952H31.0017C34.6279 22.7952 36.6275 21.335 36.6275 18.7249C36.6275 16.2791 34.9082 14.9285 31.8803 14.9285ZM26.3109 25.9168V34.5863H32.0853C35.8606 34.5863 37.8607 33.0714 37.8607 30.2242C37.8607 27.3765 35.8047 25.9163 31.8424 25.9163H26.3109V25.9168Z" fill="#6F11F4"/>
<path d="M92.7557 26.6328C92.7557 27.5 92.5917 28.2656 92.2635 28.9297C91.9354 29.5938 91.494 30.1406 90.9393 30.5703C90.2831 31.0859 89.5604 31.4531 88.7714 31.6719C87.9901 31.8906 86.994 32 85.7831 32H79.5956V14.5508H84.7635C86.037 14.5508 86.9901 14.5977 87.6229 14.6914C88.2557 14.7852 88.8612 14.9805 89.4393 15.2773C90.08 15.6133 90.5448 16.0469 90.8339 16.5781C91.1229 17.1016 91.2675 17.7305 91.2675 18.4648C91.2675 19.293 91.0565 20 90.6346 20.5859C90.2128 21.1641 89.6503 21.6289 88.9471 21.9805V22.0742C90.1268 22.3164 91.0565 22.8359 91.7362 23.6328C92.4159 24.4219 92.7557 25.4219 92.7557 26.6328ZM88.8534 18.7695C88.8534 18.3477 88.7831 17.9922 88.6425 17.7031C88.5018 17.4141 88.2753 17.1797 87.9628 17C87.5956 16.7891 87.1503 16.6602 86.6268 16.6133C86.1034 16.5586 85.455 16.5312 84.6815 16.5312H81.9159V21.5703H84.9159C85.6425 21.5703 86.2206 21.5352 86.6503 21.4648C87.08 21.3867 87.4784 21.2305 87.8456 20.9961C88.2128 20.7617 88.4706 20.4609 88.619 20.0938C88.7753 19.7188 88.8534 19.2773 88.8534 18.7695ZM90.3417 26.7266C90.3417 26.0234 90.2362 25.4648 90.0253 25.0508C89.8143 24.6367 89.4315 24.2852 88.8768 23.9961C88.5018 23.8008 88.0448 23.6758 87.5057 23.6211C86.9745 23.5586 86.326 23.5273 85.5604 23.5273H81.9159V30.0195H84.9862C86.0018 30.0195 86.8339 29.9688 87.4823 29.8672C88.1307 29.7578 88.662 29.5625 89.076 29.2812C89.5135 28.9766 89.8339 28.6289 90.037 28.2383C90.2401 27.8477 90.3417 27.3438 90.3417 26.7266ZM107.029 25.4609C107.029 27.5938 106.482 29.2773 105.389 30.5117C104.295 31.7461 102.83 32.3633 100.994 32.3633C99.1425 32.3633 97.6698 31.7461 96.576 30.5117C95.4901 29.2773 94.9471 27.5938 94.9471 25.4609C94.9471 23.3281 95.4901 21.6445 96.576 20.4102C97.6698 19.168 99.1425 18.5469 100.994 18.5469C102.83 18.5469 104.295 19.168 105.389 20.4102C106.482 21.6445 107.029 23.3281 107.029 25.4609ZM104.756 25.4609C104.756 23.7656 104.424 22.5078 103.76 21.6875C103.096 20.8594 102.174 20.4453 100.994 20.4453C99.7987 20.4453 98.869 20.8594 98.205 21.6875C97.5487 22.5078 97.2206 23.7656 97.2206 25.4609C97.2206 27.1016 97.5526 28.3477 98.2167 29.1992C98.8807 30.043 99.8065 30.4648 100.994 30.4648C102.166 30.4648 103.084 30.0469 103.748 29.2109C104.42 28.3672 104.756 27.1172 104.756 25.4609ZM121.607 25.4609C121.607 27.5938 121.06 29.2773 119.967 30.5117C118.873 31.7461 117.408 32.3633 115.572 32.3633C113.721 32.3633 112.248 31.7461 111.154 30.5117C110.068 29.2773 109.525 27.5938 109.525 25.4609C109.525 23.3281 110.068 21.6445 111.154 20.4102C112.248 19.168 113.721 18.5469 115.572 18.5469C117.408 18.5469 118.873 19.168 119.967 20.4102C121.06 21.6445 121.607 23.3281 121.607 25.4609ZM119.334 25.4609C119.334 23.7656 119.002 22.5078 118.338 21.6875C117.674 20.8594 116.752 20.4453 115.572 20.4453C114.377 20.4453 113.447 20.8594 112.783 21.6875C112.127 22.5078 111.799 23.7656 111.799 25.4609C111.799 27.1016 112.131 28.3477 112.795 29.1992C113.459 30.043 114.385 30.4648 115.572 30.4648C116.744 30.4648 117.662 30.0469 118.326 29.2109C118.998 28.3672 119.334 27.1172 119.334 25.4609ZM131.826 31.8828C131.412 31.9922 130.959 32.082 130.467 32.1523C129.982 32.2227 129.549 32.2578 129.166 32.2578C127.83 32.2578 126.814 31.8984 126.119 31.1797C125.424 30.4609 125.076 29.3086 125.076 27.7227V20.7617H123.588V18.9102H125.076V15.1484H127.279V18.9102H131.826V20.7617H127.279V26.7266C127.279 27.4141 127.295 27.9531 127.326 28.3438C127.357 28.7266 127.467 29.0859 127.654 29.4219C127.826 29.7344 128.06 29.9648 128.357 30.1133C128.662 30.2539 129.123 30.3242 129.74 30.3242C130.099 30.3242 130.474 30.2734 130.865 30.1719C131.256 30.0625 131.537 29.9727 131.709 29.9023H131.826V31.8828ZM143.849 28.2266C143.849 29.4219 143.353 30.4023 142.361 31.168C141.377 31.9336 140.029 32.3164 138.318 32.3164C137.349 32.3164 136.459 32.2031 135.646 31.9766C134.842 31.7422 134.166 31.4883 133.619 31.2148V28.7422H133.736C134.432 29.2656 135.205 29.6836 136.057 29.9961C136.908 30.3008 137.724 30.4531 138.506 30.4531C139.474 30.4531 140.232 30.2969 140.779 29.9844C141.326 29.6719 141.599 29.1797 141.599 28.5078C141.599 27.9922 141.451 27.6016 141.154 27.3359C140.857 27.0703 140.287 26.8438 139.443 26.6562C139.131 26.5859 138.721 26.5039 138.213 26.4102C137.713 26.3164 137.256 26.2148 136.842 26.1055C135.693 25.8008 134.877 25.3555 134.392 24.7695C133.916 24.1758 133.678 23.4492 133.678 22.5898C133.678 22.0508 133.787 21.543 134.006 21.0664C134.232 20.5898 134.572 20.1641 135.025 19.7891C135.463 19.4219 136.017 19.1328 136.689 18.9219C137.369 18.7031 138.127 18.5938 138.963 18.5938C139.744 18.5938 140.533 18.6914 141.33 18.8867C142.135 19.0742 142.803 19.3047 143.334 19.5781V21.9336H143.217C142.654 21.5195 141.971 21.1719 141.166 20.8906C140.361 20.6016 139.572 20.457 138.799 20.457C137.994 20.457 137.314 20.6133 136.76 20.9258C136.205 21.2305 135.928 21.6875 135.928 22.2969C135.928 22.8359 136.096 23.2422 136.432 23.5156C136.76 23.7891 137.291 24.0117 138.025 24.1836C138.432 24.2773 138.885 24.3711 139.385 24.4648C139.892 24.5586 140.314 24.6445 140.65 24.7227C141.674 24.957 142.463 25.3594 143.017 25.9297C143.572 26.5078 143.849 27.2734 143.849 28.2266ZM153.81 31.8828C153.396 31.9922 152.943 32.082 152.451 32.1523C151.967 32.2227 151.533 32.2578 151.15 32.2578C149.814 32.2578 148.799 31.8984 148.103 31.1797C147.408 30.4609 147.06 29.3086 147.06 27.7227V20.7617H145.572V18.9102H147.06V15.1484H149.264V18.9102H153.81V20.7617H149.264V26.7266C149.264 27.4141 149.279 27.9531 149.31 28.3438C149.342 28.7266 149.451 29.0859 149.639 29.4219C149.81 29.7344 150.045 29.9648 150.342 30.1133C150.646 30.2539 151.107 30.3242 151.724 30.3242C152.084 30.3242 152.459 30.2734 152.849 30.1719C153.24 30.0625 153.521 29.9727 153.693 29.9023H153.81V31.8828ZM164.65 21.3125H164.533C164.205 21.2344 163.885 21.1797 163.572 21.1484C163.267 21.1094 162.904 21.0898 162.482 21.0898C161.803 21.0898 161.146 21.2422 160.514 21.5469C159.881 21.8438 159.271 22.2305 158.685 22.707V32H156.482V18.9102H158.685V20.8438C159.56 20.1406 160.33 19.6445 160.994 19.3555C161.666 19.0586 162.349 18.9102 163.045 18.9102C163.428 18.9102 163.705 18.9219 163.877 18.9453C164.049 18.9609 164.307 18.9961 164.65 19.0508V21.3125ZM176.474 32H174.283V30.6055C174.088 30.7383 173.822 30.9258 173.486 31.168C173.158 31.4023 172.838 31.5898 172.525 31.7305C172.158 31.9102 171.736 32.0586 171.26 32.1758C170.783 32.3008 170.224 32.3633 169.584 32.3633C168.404 32.3633 167.404 31.9727 166.584 31.1914C165.764 30.4102 165.353 29.4141 165.353 28.2031C165.353 27.2109 165.564 26.4102 165.986 25.8008C166.416 25.1836 167.025 24.6992 167.814 24.3477C168.611 23.9961 169.568 23.7578 170.685 23.6328C171.803 23.5078 173.002 23.4141 174.283 23.3516V23.0117C174.283 22.5117 174.193 22.0977 174.014 21.7695C173.842 21.4414 173.592 21.1836 173.264 20.9961C172.951 20.8164 172.576 20.6953 172.139 20.6328C171.701 20.5703 171.244 20.5391 170.767 20.5391C170.189 20.5391 169.545 20.6172 168.834 20.7734C168.123 20.9219 167.389 21.1406 166.631 21.4297H166.514V19.1914C166.943 19.0742 167.564 18.9453 168.377 18.8047C169.189 18.6641 169.99 18.5938 170.779 18.5938C171.701 18.5938 172.502 18.6719 173.182 18.8281C173.869 18.9766 174.463 19.2344 174.963 19.6016C175.455 19.9609 175.83 20.4258 176.088 20.9961C176.346 21.5664 176.474 22.2734 176.474 23.1172V32ZM174.283 28.7773V25.1328C173.611 25.1719 172.818 25.2305 171.904 25.3086C170.998 25.3867 170.279 25.5 169.748 25.6484C169.115 25.8281 168.603 26.1094 168.213 26.4922C167.822 26.8672 167.627 27.3867 167.627 28.0508C167.627 28.8008 167.853 29.3672 168.307 29.75C168.76 30.125 169.451 30.3125 170.381 30.3125C171.154 30.3125 171.861 30.1641 172.502 29.8672C173.142 29.5625 173.736 29.1992 174.283 28.7773ZM192.236 25.2969C192.236 26.3594 192.084 27.332 191.779 28.2148C191.474 29.0898 191.045 29.832 190.49 30.4414C189.974 31.0195 189.365 31.4688 188.662 31.7891C187.967 32.1016 187.228 32.2578 186.447 32.2578C185.767 32.2578 185.15 32.1836 184.596 32.0352C184.049 31.8867 183.49 31.6562 182.92 31.3438V36.8281H180.717V18.9102H182.92V20.2812C183.506 19.7891 184.162 19.3789 184.889 19.0508C185.623 18.7148 186.404 18.5469 187.232 18.5469C188.81 18.5469 190.037 19.1445 190.912 20.3398C191.795 21.5273 192.236 23.1797 192.236 25.2969ZM189.963 25.3555C189.963 23.7773 189.693 22.5977 189.154 21.8164C188.615 21.0352 187.787 20.6445 186.67 20.6445C186.037 20.6445 185.4 20.7812 184.76 21.0547C184.119 21.3281 183.506 21.6875 182.92 22.1328V29.5508C183.545 29.832 184.08 30.0234 184.525 30.125C184.978 30.2266 185.49 30.2773 186.06 30.2773C187.287 30.2773 188.244 29.8633 188.932 29.0352C189.619 28.207 189.963 26.9805 189.963 25.3555Z" fill="#6F11F4"/>
</svg>
