<svg width="97" height="48" viewBox="0 0 97 48" fill="none" xmlns="http://www.w3.org/2000/svg">
<path d="M49.7141 15.5474C47.1106 18.1509 42.8895 18.1509 40.286 15.5474C38.9843 14.2456 38.3334 12.5395 38.3334 10.8333C38.3334 9.12718 38.9842 7.42103 40.286 6.11928C40.286 6.11928 40.8334 7.49996 42.5001 8.3333C42.5001 6.66663 42.9167 4.16663 44.9883 2.5C46.6667 4.16667 48.4093 4.81454 49.7141 6.11928C51.0158 7.42103 51.6667 9.12718 51.6667 10.8333C51.6667 12.5395 51.0158 14.2456 49.7141 15.5474Z" stroke="#453BFF" stroke-linecap="round" stroke-linejoin="round"/>
<path d="M43.2323 13.4344C44.2086 14.4107 45.7915 14.4107 46.7678 13.4344C47.256 12.9462 47.5 12.3065 47.5 11.6667C47.5 11.0268 47.256 10.387 46.7678 9.89886C46.2827 9.41379 45.6479 9.16972 45.0122 9.16666L44.1667 11.6666L42.5 11.6667C42.5 12.3065 42.7441 12.9462 43.2323 13.4344Z" stroke="#453BFF" stroke-linecap="round" stroke-linejoin="round"/>
<path d="M6.144 41.392C6.672 41.392 7.136 41.384 7.536 41.368C7.952 41.336 8.296 41.288 8.568 41.224V37.504C8.408 37.424 8.144 37.36 7.776 37.312C7.424 37.248 6.992 37.216 6.48 37.216C6.144 37.216 5.784 37.24 5.4 37.288C5.032 37.336 4.688 37.44 4.368 37.6C4.064 37.744 3.808 37.952 3.6 38.224C3.392 38.48 3.288 38.824 3.288 39.256C3.288 40.056 3.544 40.616 4.056 40.936C4.568 41.24 5.264 41.392 6.144 41.392ZM5.952 30.208C6.848 30.208 7.6 30.328 8.208 30.568C8.832 30.792 9.328 31.12 9.696 31.552C10.08 31.968 10.352 32.472 10.512 33.064C10.672 33.64 10.752 34.28 10.752 34.984V42.784C10.56 42.816 10.288 42.864 9.936 42.928C9.6 42.976 9.216 43.024 8.784 43.072C8.352 43.12 7.88 43.16 7.368 43.192C6.872 43.24 6.376 43.264 5.88 43.264C5.176 43.264 4.528 43.192 3.936 43.048C3.344 42.904 2.832 42.68 2.4 42.376C1.968 42.056 1.632 41.64 1.392 41.128C1.152 40.616 1.032 40 1.032 39.28C1.032 38.592 1.168 38 1.44 37.504C1.728 37.008 2.112 36.608 2.592 36.304C3.072 36 3.632 35.776 4.272 35.632C4.912 35.488 5.584 35.416 6.288 35.416C6.512 35.416 6.744 35.432 6.984 35.464C7.224 35.48 7.448 35.512 7.656 35.56C7.88 35.592 8.072 35.624 8.232 35.656C8.392 35.688 8.504 35.712 8.568 35.728V35.104C8.568 34.736 8.528 34.376 8.448 34.024C8.368 33.656 8.224 33.336 8.016 33.064C7.808 32.776 7.52 32.552 7.152 32.392C6.8 32.216 6.336 32.128 5.76 32.128C5.024 32.128 4.376 32.184 3.816 32.296C3.272 32.392 2.864 32.496 2.592 32.608L2.328 30.76C2.616 30.632 3.096 30.512 3.768 30.4C4.44 30.272 5.168 30.208 5.952 30.208ZM14.4591 30.88C14.9711 30.752 15.6511 30.616 16.4991 30.472C17.3471 30.328 18.3231 30.256 19.4271 30.256C20.4191 30.256 21.2431 30.4 21.8991 30.688C22.5551 30.96 23.0751 31.352 23.4591 31.864C23.8591 32.36 24.1391 32.96 24.2991 33.664C24.4591 34.368 24.5391 35.144 24.5391 35.992V43H22.3071V36.472C22.3071 35.704 22.2511 35.048 22.1391 34.504C22.0431 33.96 21.8751 33.52 21.6351 33.184C21.3951 32.848 21.0751 32.608 20.6751 32.464C20.2751 32.304 19.7791 32.224 19.1871 32.224C18.9471 32.224 18.6991 32.232 18.4431 32.248C18.1871 32.264 17.9391 32.288 17.6991 32.32C17.4751 32.336 17.2671 32.36 17.0751 32.392C16.8991 32.424 16.7711 32.448 16.6911 32.464V43H14.4591V30.88ZM36.3043 33.16C36.0323 32.936 35.6403 32.72 35.1283 32.512C34.6163 32.304 34.0563 32.2 33.4483 32.2C32.8083 32.2 32.2563 32.32 31.7923 32.56C31.3443 32.784 30.9763 33.104 30.6883 33.52C30.4003 33.92 30.1923 34.4 30.0643 34.96C29.9363 35.52 29.8723 36.12 29.8723 36.76C29.8723 38.216 30.2323 39.344 30.9523 40.144C31.6723 40.928 32.6323 41.32 33.8323 41.32C34.4403 41.32 34.9443 41.296 35.3443 41.248C35.7603 41.184 36.0803 41.12 36.3043 41.056V33.16ZM36.3043 24.76L38.5363 24.376V42.64C38.0243 42.784 37.3683 42.928 36.5683 43.072C35.7683 43.216 34.8483 43.288 33.8083 43.288C32.8483 43.288 31.9843 43.136 31.2163 42.832C30.4483 42.528 29.7923 42.096 29.2483 41.536C28.7043 40.976 28.2803 40.296 27.9763 39.496C27.6883 38.68 27.5443 37.768 27.5443 36.76C27.5443 35.8 27.6643 34.92 27.9043 34.12C28.1603 33.32 28.5283 32.632 29.0083 32.056C29.4883 31.48 30.0723 31.032 30.7603 30.712C31.4643 30.392 32.2643 30.232 33.1603 30.232C33.8803 30.232 34.5123 30.328 35.0563 30.52C35.6163 30.712 36.0323 30.896 36.3043 31.072V24.76ZM42.5171 26.368H44.8451V43H42.5171V26.368ZM53.3304 36.136C53.8104 36.504 54.3144 36.96 54.8424 37.504C55.3864 38.048 55.9144 38.64 56.4264 39.28C56.9544 39.904 57.4504 40.544 57.9144 41.2C58.3784 41.84 58.7704 42.44 59.0904 43H56.4744C56.1384 42.44 55.7464 41.872 55.2984 41.296C54.8664 40.704 54.4104 40.144 53.9304 39.616C53.4504 39.072 52.9624 38.576 52.4664 38.128C51.9704 37.68 51.4984 37.304 51.0504 37V43H48.8184V24.76L51.0504 24.376V35.752C51.4344 35.368 51.8584 34.944 52.3224 34.48C52.7864 34.016 53.2424 33.544 53.6904 33.064C54.1384 32.584 54.5624 32.128 54.9624 31.696C55.3624 31.248 55.7064 30.856 55.9944 30.52H58.6104C58.2424 30.92 57.8424 31.36 57.4104 31.84C56.9784 32.32 56.5304 32.808 56.0664 33.304C55.6024 33.784 55.1304 34.272 54.6504 34.768C54.1864 35.248 53.7464 35.704 53.3304 36.136ZM65.5815 41.392C66.1095 41.392 66.5735 41.384 66.9735 41.368C67.3895 41.336 67.7335 41.288 68.0055 41.224V37.504C67.8455 37.424 67.5815 37.36 67.2135 37.312C66.8615 37.248 66.4295 37.216 65.9175 37.216C65.5815 37.216 65.2215 37.24 64.8375 37.288C64.4695 37.336 64.1255 37.44 63.8055 37.6C63.5015 37.744 63.2455 37.952 63.0375 38.224C62.8295 38.48 62.7255 38.824 62.7255 39.256C62.7255 40.056 62.9815 40.616 63.4935 40.936C64.0055 41.24 64.7015 41.392 65.5815 41.392ZM65.3895 30.208C66.2855 30.208 67.0375 30.328 67.6455 30.568C68.2695 30.792 68.7655 31.12 69.1335 31.552C69.5175 31.968 69.7895 32.472 69.9495 33.064C70.1095 33.64 70.1895 34.28 70.1895 34.984V42.784C69.9975 42.816 69.7255 42.864 69.3735 42.928C69.0375 42.976 68.6535 43.024 68.2215 43.072C67.7895 43.12 67.3175 43.16 66.8055 43.192C66.3095 43.24 65.8135 43.264 65.3175 43.264C64.6135 43.264 63.9655 43.192 63.3735 43.048C62.7815 42.904 62.2695 42.68 61.8375 42.376C61.4055 42.056 61.0695 41.64 60.8295 41.128C60.5895 40.616 60.4695 40 60.4695 39.28C60.4695 38.592 60.6055 38 60.8775 37.504C61.1655 37.008 61.5495 36.608 62.0295 36.304C62.5095 36 63.0695 35.776 63.7095 35.632C64.3495 35.488 65.0215 35.416 65.7255 35.416C65.9495 35.416 66.1815 35.432 66.4215 35.464C66.6615 35.48 66.8855 35.512 67.0935 35.56C67.3175 35.592 67.5095 35.624 67.6695 35.656C67.8295 35.688 67.9415 35.712 68.0055 35.728V35.104C68.0055 34.736 67.9655 34.376 67.8855 34.024C67.8055 33.656 67.6615 33.336 67.4535 33.064C67.2455 32.776 66.9575 32.552 66.5895 32.392C66.2375 32.216 65.7735 32.128 65.1975 32.128C64.4615 32.128 63.8135 32.184 63.2535 32.296C62.7095 32.392 62.3015 32.496 62.0295 32.608L61.7655 30.76C62.0535 30.632 62.5335 30.512 63.2055 30.4C63.8775 30.272 64.6055 30.208 65.3895 30.208ZM82.5606 36.784C82.5606 35.328 82.2006 34.208 81.4806 33.424C80.7606 32.64 79.8006 32.248 78.6006 32.248C77.9286 32.248 77.4006 32.272 77.0166 32.32C76.6486 32.368 76.3526 32.424 76.1286 32.488V40.36C76.4006 40.584 76.7926 40.8 77.3046 41.008C77.8166 41.216 78.3766 41.32 78.9846 41.32C79.6246 41.32 80.1686 41.208 80.6166 40.984C81.0806 40.744 81.4566 40.424 81.7446 40.024C82.0326 39.608 82.2406 39.128 82.3686 38.584C82.4966 38.024 82.5606 37.424 82.5606 36.784ZM84.8886 36.784C84.8886 37.728 84.7606 38.6 84.5046 39.4C84.2646 40.2 83.9046 40.888 83.4246 41.464C82.9446 42.04 82.3526 42.488 81.6486 42.808C80.9606 43.128 80.1686 43.288 79.2726 43.288C78.5526 43.288 77.9126 43.192 77.3526 43C76.8086 42.808 76.4006 42.624 76.1286 42.448V47.44H73.8966V30.904C74.4246 30.776 75.0806 30.64 75.8646 30.496C76.6646 30.336 77.5846 30.256 78.6246 30.256C79.5846 30.256 80.4486 30.408 81.2166 30.712C81.9846 31.016 82.6406 31.448 83.1846 32.008C83.7286 32.568 84.1446 33.256 84.4326 34.072C84.7366 34.872 84.8886 35.776 84.8886 36.784ZM90.9334 41.392C91.8454 41.392 92.5174 41.272 92.9494 41.032C93.3974 40.792 93.6214 40.408 93.6214 39.88C93.6214 39.336 93.4054 38.904 92.9734 38.584C92.5414 38.264 91.8294 37.904 90.8374 37.504C90.3574 37.312 89.8934 37.12 89.4454 36.928C89.0134 36.72 88.6374 36.48 88.3174 36.208C87.9974 35.936 87.7414 35.608 87.5494 35.224C87.3574 34.84 87.2614 34.368 87.2614 33.808C87.2614 32.704 87.6694 31.832 88.4854 31.192C89.3014 30.536 90.4134 30.208 91.8214 30.208C92.1734 30.208 92.5254 30.232 92.8774 30.28C93.2294 30.312 93.5574 30.36 93.8614 30.424C94.1654 30.472 94.4294 30.528 94.6534 30.592C94.8934 30.656 95.0774 30.712 95.2054 30.76L94.7974 32.68C94.5574 32.552 94.1814 32.424 93.6694 32.296C93.1574 32.152 92.5414 32.08 91.8214 32.08C91.1974 32.08 90.6534 32.208 90.1894 32.464C89.7254 32.704 89.4934 33.088 89.4934 33.616C89.4934 33.888 89.5414 34.128 89.6374 34.336C89.7494 34.544 89.9094 34.736 90.1174 34.912C90.3414 35.072 90.6134 35.224 90.9334 35.368C91.2534 35.512 91.6374 35.664 92.0854 35.824C92.6774 36.048 93.2054 36.272 93.6694 36.496C94.1334 36.704 94.5254 36.952 94.8454 37.24C95.1814 37.528 95.4374 37.88 95.6134 38.296C95.7894 38.696 95.8774 39.192 95.8774 39.784C95.8774 40.936 95.4454 41.808 94.5814 42.4C93.7334 42.992 92.5174 43.288 90.9334 43.288C89.8294 43.288 88.9654 43.192 88.3414 43C87.7174 42.824 87.2934 42.688 87.0694 42.592L87.4774 40.672C87.7334 40.768 88.1414 40.912 88.7014 41.104C89.2614 41.296 90.0054 41.392 90.9334 41.392Z" fill="#563BFF"/>
</svg>
