<svg width="55" height="21" viewBox="0 0 55 21" fill="none" xmlns="http://www.w3.org/2000/svg">
<path d="M4.608 15.794C5.004 15.794 5.352 15.788 5.652 15.776C5.964 15.752 6.222 15.716 6.426 15.668V12.878C6.306 12.818 6.108 12.77 5.832 12.734C5.568 12.686 5.244 12.662 4.86 12.662C4.608 12.662 4.338 12.68 4.05 12.716C3.774 12.752 3.516 12.83 3.276 12.95C3.048 13.058 2.856 13.214 2.7 13.418C2.544 13.61 2.466 13.868 2.466 14.192C2.466 14.792 2.658 15.212 3.042 15.452C3.426 15.68 3.948 15.794 4.608 15.794ZM4.464 7.406C5.136 7.406 5.7 7.496 6.156 7.676C6.624 7.844 6.996 8.09 7.272 8.414C7.56 8.726 7.764 9.104 7.884 9.548C8.004 9.98 8.064 10.46 8.064 10.988V16.838C7.92 16.862 7.716 16.898 7.452 16.946C7.2 16.982 6.912 17.018 6.588 17.054C6.264 17.09 5.91 17.12 5.526 17.144C5.154 17.18 4.782 17.198 4.41 17.198C3.882 17.198 3.396 17.144 2.952 17.036C2.508 16.928 2.124 16.76 1.8 16.532C1.476 16.292 1.224 15.98 1.044 15.596C0.864 15.212 0.774 14.75 0.774 14.21C0.774 13.694 0.876 13.25 1.08 12.878C1.296 12.506 1.584 12.206 1.944 11.978C2.304 11.75 2.724 11.582 3.204 11.474C3.684 11.366 4.188 11.312 4.716 11.312C4.884 11.312 5.058 11.324 5.238 11.348C5.418 11.36 5.586 11.384 5.742 11.42C5.91 11.444 6.054 11.468 6.174 11.492C6.294 11.516 6.378 11.534 6.426 11.546V11.078C6.426 10.802 6.396 10.532 6.336 10.268C6.276 9.992 6.168 9.752 6.012 9.548C5.856 9.332 5.64 9.164 5.364 9.044C5.1 8.912 4.752 8.846 4.32 8.846C3.768 8.846 3.282 8.888 2.862 8.972C2.454 9.044 2.148 9.122 1.944 9.206L1.746 7.82C1.962 7.724 2.322 7.634 2.826 7.55C3.33 7.454 3.876 7.406 4.464 7.406ZM17.3423 12.338C17.3423 11.246 17.0723 10.406 16.5323 9.818C15.9923 9.23 15.2723 8.936 14.3723 8.936C13.8683 8.936 13.4723 8.954 13.1843 8.99C12.9083 9.026 12.6863 9.068 12.5183 9.116V15.02C12.7223 15.188 13.0163 15.35 13.4003 15.506C13.7843 15.662 14.2043 15.74 14.6603 15.74C15.1403 15.74 15.5483 15.656 15.8843 15.488C16.2323 15.308 16.5143 15.068 16.7303 14.768C16.9463 14.456 17.1023 14.096 17.1983 13.688C17.2943 13.268 17.3423 12.818 17.3423 12.338ZM19.0883 12.338C19.0883 13.046 18.9923 13.7 18.8003 14.3C18.6203 14.9 18.3503 15.416 17.9903 15.848C17.6303 16.28 17.1863 16.616 16.6583 16.856C16.1423 17.096 15.5483 17.216 14.8763 17.216C14.3363 17.216 13.8563 17.144 13.4363 17C13.0283 16.856 12.7223 16.718 12.5183 16.586V20.33H10.8443V7.928C11.2403 7.832 11.7323 7.73 12.3203 7.622C12.9203 7.502 13.6103 7.442 14.3903 7.442C15.1103 7.442 15.7583 7.556 16.3343 7.784C16.9103 8.012 17.4023 8.336 17.8103 8.756C18.2183 9.176 18.5303 9.692 18.7463 10.304C18.9743 10.904 19.0883 11.582 19.0883 12.338ZM23.6219 15.794C24.3059 15.794 24.8099 15.704 25.1339 15.524C25.4699 15.344 25.6379 15.056 25.6379 14.66C25.6379 14.252 25.4759 13.928 25.1519 13.688C24.8279 13.448 24.2939 13.178 23.5499 12.878C23.1899 12.734 22.8419 12.59 22.5059 12.446C22.1819 12.29 21.8999 12.11 21.6599 11.906C21.4199 11.702 21.2279 11.456 21.0839 11.168C20.9399 10.88 20.8679 10.526 20.8679 10.106C20.8679 9.278 21.1739 8.624 21.7859 8.144C22.3979 7.652 23.2319 7.406 24.2879 7.406C24.5519 7.406 24.8159 7.424 25.0799 7.46C25.3439 7.484 25.5899 7.52 25.8179 7.568C26.0459 7.604 26.2439 7.646 26.4119 7.694C26.5919 7.742 26.7299 7.784 26.8259 7.82L26.5199 9.26C26.3399 9.164 26.0579 9.068 25.6739 8.972C25.2899 8.864 24.8279 8.81 24.2879 8.81C23.8199 8.81 23.4119 8.906 23.0639 9.098C22.7159 9.278 22.5419 9.566 22.5419 9.962C22.5419 10.166 22.5779 10.346 22.6499 10.502C22.7339 10.658 22.8539 10.802 23.0099 10.934C23.1779 11.054 23.3819 11.168 23.6219 11.276C23.8619 11.384 24.1499 11.498 24.4859 11.618C24.9299 11.786 25.3259 11.954 25.6739 12.122C26.0219 12.278 26.3159 12.464 26.5559 12.68C26.8079 12.896 26.9999 13.16 27.1319 13.472C27.2639 13.772 27.3299 14.144 27.3299 14.588C27.3299 15.452 27.0059 16.106 26.3579 16.55C25.7219 16.994 24.8099 17.216 23.6219 17.216C22.7939 17.216 22.1459 17.144 21.6779 17C21.2099 16.868 20.8919 16.766 20.7239 16.694L21.0299 15.254C21.2219 15.326 21.5279 15.434 21.9479 15.578C22.3679 15.722 22.9259 15.794 23.6219 15.794Z" fill="#F2C94C"/>
<path d="M49.714 16.5474C47.1105 19.1509 42.8894 19.1509 40.2859 16.5474C38.9842 15.2456 38.3333 13.5395 38.3333 11.8333C38.3333 10.1272 38.9842 8.42103 40.2859 7.11928C40.2859 7.11928 40.8334 8.49996 42.5 9.3333C42.5 7.66663 42.9167 5.16663 44.9882 3.5C46.6666 5.16667 48.4093 5.81454 49.714 7.11928C51.0158 8.42103 51.6666 10.1272 51.6666 11.8333C51.6666 13.5395 51.0158 15.2456 49.714 16.5474Z" stroke="#F2C94C" stroke-linecap="round" stroke-linejoin="round"/>
<path d="M43.2322 14.4344C44.2085 15.4107 45.7914 15.4107 46.7677 14.4344C47.2559 13.9462 47.5 13.3065 47.5 12.6667C47.5 12.0268 47.2559 11.387 46.7677 10.8989C46.2827 10.4138 45.6479 10.1697 45.0121 10.1667L44.1666 12.6666L42.5 12.6667C42.5 13.3065 42.7441 13.9462 43.2322 14.4344Z" stroke="#F2C94C" stroke-linecap="round" stroke-linejoin="round"/>
</svg>
