<svg width="262" height="132" viewBox="0 0 262 132" fill="none" xmlns="http://www.w3.org/2000/svg">
<path d="M114.708 58.3352L113.097 64.086L114.708 58.333V58.3352ZM122.996 70.8268L121.221 70.8158L122.996 70.8268ZM122.559 79.42L111.922 79.4596L122.559 79.42ZM124.786 70.84L123.009 70.829L124.786 70.84ZM123.494 78.694L125.35 71.5726L123.494 78.694ZM162.663 45.914L159.213 62.2666L162.663 45.914ZM153.79 45.892L151.17 58.1086L153.79 45.892Z" fill="#131B28"/>
<path d="M162.047 45.1593H154.667C154.257 45.1593 153.851 45.4893 153.763 45.8941L148.523 70.3295C148.436 70.7321 148.03 71.0621 147.622 71.0621H142.397C137.227 71.0621 137.825 67.4607 138.904 62.5261L138.936 62.3765L139.563 59.0105L139.834 57.6245L142.218 45.8941C142.301 45.4893 142.032 45.1571 141.622 45.1571H134.046C133.837 45.1643 133.636 45.24 133.474 45.3726C133.311 45.5052 133.196 45.6875 133.146 45.8919L129.69 62.2027C127.812 70.8355 128.31 79.0679 138.511 79.3253H154.814C155.224 79.3253 155.628 78.9953 155.715 78.5905L162.619 45.8853C162.706 45.4805 162.438 45.1505 162.03 45.1505L162.047 45.1593ZM191.478 71.1479C191.889 71.1479 192.133 71.4779 192.074 71.8827L191.358 75.4137L191.478 71.1479ZM190.66 78.9447L191.376 75.4115L190.66 78.9447ZM189.786 79.6883L176.184 79.7543L189.786 79.6883Z" fill="#131B28"/>
<path d="M171.756 66.6006C171.75 66.2134 172.186 65.549 172.597 65.549L171.675 65.5336C171.239 69.7444 171.756 66.6006 171.756 66.6006ZM176.833 79.75H176.691H176.833ZM191.478 71.17C191.889 71.17 192.133 71.5 192.074 71.9048L191.26 75.988L191.478 71.17ZM180.326 79.7434H180.295H180.326ZM178.514 79.75H178.409H178.514ZM177.963 79.75H177.789H177.963ZM177.4 79.75H177.247H177.4ZM178.409 79.75H177.961H178.409Z" fill="#131B28"/>
<path d="M180.3 79.7433L178.518 79.7499L180.3 79.7433ZM189.769 79.6839L180.326 79.7411L189.769 79.6839ZM190.642 78.9469L191.243 75.9901L190.642 78.9491V78.9469ZM177.769 79.7499H177.381H177.769ZM176.667 79.7543H176.143H176.667ZM177.221 79.7499H176.784H177.221ZM69.2378 66.6885L70.3841 61.5669L69.0741 67.4189L68.9213 68.1537L69.24 66.6841L69.2378 66.6885ZM82.9666 45.0735H74.8599C74.6505 45.0818 74.4491 45.1573 74.2853 45.2891C74.1215 45.421 74.0038 45.6021 73.9495 45.8061L72.4124 52.6261C72.3866 52.7144 72.3823 52.8076 72.3998 52.8979C72.4174 52.9883 72.4564 53.073 72.5134 53.1449C72.5704 53.2168 72.6438 53.2738 72.7273 53.311C72.8108 53.3482 72.902 53.3646 72.9932 53.3587H81.1632C81.5737 53.3587 81.9798 53.0287 82.0671 52.6261L83.5518 45.7907C83.6391 45.3881 83.3771 45.0581 82.9623 45.0581L82.9666 45.0735ZM81.22 56.4475L78.8183 67.5311L81.22 56.4475ZM57.6705 93.1699L64.3559 93.2227C62.3822 93.2227 59.1225 93.1853 57.6684 93.1677L57.6705 93.1699Z" fill="#131B28"/>
<path d="M71.5544 56.4454L70.4059 61.567L71.5544 56.4454ZM80.637 55.7106H72.4866C72.2772 55.7189 72.0758 55.7944 71.912 55.9262C71.7482 56.0581 71.6305 56.2392 71.5762 56.4432L69.2837 66.6864L68.9649 68.156L66.7816 78.6126C66.6734 79.1004 66.5423 79.5828 66.3886 80.058C66.3886 80.058 64.8603 84.634 62.297 84.5834L59.7534 84.535C59.5448 84.5409 59.3435 84.6136 59.1786 84.7426C59.0137 84.8715 58.8939 85.05 58.8364 85.2522L57.1422 92.4286C57.1154 92.5164 57.1101 92.6093 57.1265 92.6996C57.1429 92.7899 57.1807 92.8749 57.2366 92.9474C57.2924 93.0199 57.3648 93.0777 57.4476 93.1161C57.5303 93.1545 57.621 93.1722 57.712 93.1678L64.3996 93.2228C70.8098 93.2228 74.1875 89.6434 76.3555 79.3474L81.268 56.4674C81.3553 56.0648 81.089 55.7348 80.6785 55.7348L80.637 55.7106ZM196.703 79.332C196.293 79.332 196.048 79.002 196.114 78.5972L202.264 49.588L196.703 79.332ZM205.246 78.5972L207.735 66.2156L205.246 78.5972Z" fill="#131B28"/>
<path d="M196.205 78.9667C196.155 78.7643 196.183 78.2693 196.271 77.8667L199.188 64.0947L196.114 78.5993C196.026 79.0041 196.293 79.3341 196.703 79.3341H197.45C197.039 79.3341 196.253 79.1691 196.205 78.9667ZM204.764 79.1691C204.541 79.2571 204.022 79.3341 203.611 79.3341H204.358C204.566 79.3258 204.766 79.2494 204.928 79.1165C205.089 78.9835 205.203 78.8012 205.253 78.5971L205.401 77.8623C205.321 78.2671 204.965 79.0789 204.746 79.1691H204.764ZM206.493 72.4063L207.591 66.9415L206.493 72.4063ZM230.746 51.5327L231.084 52.9407C231.178 53.3433 230.918 53.6711 230.51 53.6733" fill="#131B28"/>
<path d="M205.397 77.8624L206.489 72.4064L205.397 77.8624ZM230.407 50.0874L230.741 51.5306L230.407 50.0874ZM207.591 66.946L207.893 65.4852L209.065 59.9522L207.738 66.2178L207.591 66.9438V66.946ZM202.362 49.1128L202.107 50.3228L199.19 64.0948L202.264 49.5902L202.362 49.115V49.1128Z" fill="#131B28"/>
<path d="M231.084 52.9408L230.746 51.5328L230.243 49.3328C229.58 46.7368 227.632 45.2342 223.401 45.2342L203.925 45.221C203.717 45.2282 203.516 45.3039 203.354 45.4365C203.191 45.5691 203.076 45.7514 203.026 45.9558L202.725 47.3924L202.288 49.5638L196.297 77.8404C196.21 78.2452 196.181 78.7204 196.231 78.9404C196.282 79.1604 197.068 79.3078 197.476 79.3078H203.633C204.043 79.3078 204.561 79.233 204.786 79.1428C205.011 79.0526 205.34 78.2628 205.441 77.836L207.777 66.1892L210.277 54.3884C210.364 53.9858 210.768 53.658 211.176 53.6558L230.549 53.647C230.957 53.647 231.217 53.317 231.123 52.9144L231.084 52.9408ZM256.022 40.194L254.531 40.2006H248.33C248.103 40.2142 247.882 40.2766 247.681 40.3836C247.479 40.4906 247.303 40.6397 247.164 40.821L233.453 61.061C233.221 61.402 232.957 61.3514 232.863 60.951L231.855 56.4916C231.8 56.2876 231.683 56.1064 231.519 55.9746C231.355 55.8428 231.154 55.7672 230.944 55.759H222.13C221.72 55.759 221.475 56.0824 221.589 56.4806L225.519 70.4242C225.632 70.8202 225.639 71.4736 225.54 71.8762L223.794 78.6236C223.764 78.7101 223.756 78.8027 223.771 78.8931C223.786 78.9834 223.823 79.0687 223.878 79.141C223.934 79.2133 224.007 79.2705 224.09 79.3073C224.173 79.3441 224.264 79.3594 224.355 79.3518H233.088C233.499 79.3518 233.918 79.0218 234.018 78.6258L235.765 71.8784C235.902 71.4033 236.116 70.9543 236.398 70.5496L258.659 40.7792C258.906 40.4492 258.773 40.1808 258.363 40.1852L256.026 40.2006L256.022 40.194ZM185.989 57.6576C185.937 58.0976 185.527 58.4276 185.116 58.4276H173.937C173.551 58.4276 173.354 58.1636 173.413 57.8336L173.422 57.7742L173.472 57.5828C174.564 54.7228 176.715 52.8462 180.8 52.8462C185.4 52.8462 186.297 55.1122 185.985 57.6576H185.989ZM182.714 44.66C168.37 44.66 164.97 53.4336 163.064 62.2886C161.156 71.3152 161.322 79.7566 176.164 79.7566H178.518L180.33 79.75L189.775 79.6928C189.983 79.6831 190.181 79.606 190.341 79.4732C190.501 79.3404 190.615 79.1588 190.664 78.9558L192.098 71.8894C192.181 71.4846 191.913 71.1546 191.502 71.1546H178.16C172.854 71.1546 171.276 69.7334 171.857 65.5556H193.188C193.537 65.549 193.854 65.3356 193.978 65.0012C194 64.9418 194.022 64.878 194.031 64.8142C197.196 52.7802 196.288 44.6688 182.721 44.6688L182.714 44.66ZM114.909 57.6114L114.708 58.3308C114.708 58.333 113.097 64.086 113.097 64.086L111.485 69.8368C111.418 70.0395 111.292 70.2171 111.123 70.3459C110.954 70.4747 110.75 70.5488 110.538 70.5584H102.012C95.5448 70.5584 93.9707 65.461 95.5448 57.9436C97.1168 50.2546 100.206 45.474 106.571 44.99C115.269 44.33 117.007 50.4944 114.911 57.6092L114.909 57.6114ZM120.756 70.1184C120.756 70.1184 124.773 60.2844 125.69 54.6018C126.935 46.9964 123.157 35.9678 108.562 35.9678C94.0492 35.9678 87.7481 46.497 85.3443 57.9678C82.9426 69.4958 86.091 79.607 100.518 79.5278L122.54 79.4464C122.751 79.4362 122.954 79.3606 123.12 79.2299C123.287 79.0991 123.41 78.9196 123.472 78.716L125.328 71.5924C125.358 71.5061 125.366 71.4136 125.352 71.3234C125.337 71.2331 125.301 71.1479 125.245 71.0753C125.19 71.0028 125.118 70.9454 125.035 70.9081C124.952 70.8708 124.861 70.855 124.771 70.862H121.219C120.869 70.8598 120.673 70.6332 120.712 70.334C120.719 70.279 120.734 70.224 120.756 70.1668V70.1184Z" fill="#131B28"/>
<path d="M192.592 63.536C192.592 63.8088 192.373 64.0288 192.103 64.0288C191.832 64.0288 191.614 63.8088 191.614 63.536C191.614 63.2632 191.832 63.0432 192.103 63.0432C192.373 63.0432 192.592 63.2632 192.592 63.536Z" fill="#131B28"/>
<path d="M9.94944 50.7475C5.94302 56.5511 6.44082 64.1015 9.50185 70.2659L9.72674 70.7059L9.87084 70.9831L9.95817 71.1437L10.1176 71.4297L10.4101 71.9357L10.5761 72.2129L10.9145 72.7475L11.0586 72.9719L11.5498 73.6869L11.6459 73.8189L12.0935 74.4195L12.2616 74.6351L12.6983 75.1477L12.8555 75.3391L13.4319 76.0035L13.4668 76.0409L14.0519 76.6635L14.2397 76.8549L14.7069 77.2949L14.8991 77.4775L15.5388 78.0649L15.661 78.1683L16.244 78.6633L16.4623 78.8569L16.947 79.2397L17.209 79.4597L17.7549 79.8557L18.0081 80.0361L18.5365 80.3881L18.7657 80.5421L19.5954 81.0525L19.8247 81.1845L20.4469 81.5365L20.7919 81.7125L21.2373 81.9457L21.3399 81.9963L21.5211 82.0843L22.2263 82.4143L22.3748 82.4803L23.1979 82.8235L23.3988 82.9027L24.1738 83.1931L24.2721 83.2283L25.1367 83.5143L25.3463 83.5759L26.2196 83.8311C45.5967 87.3951 51.2253 72.0963 51.2253 72.0963C46.4984 78.3003 38.1254 79.9393 30.1562 78.1177C29.8549 78.0517 29.5623 77.9549 29.2698 77.8669L29.0514 77.8009C28.7661 77.7124 28.4822 77.6192 28.1999 77.5215L28.082 77.4775C27.8288 77.3895 27.5799 77.2927 27.3288 77.1959L27.117 77.1123C26.8435 77.0036 26.572 76.8899 26.3026 76.7713L26.141 76.6987L25.4555 76.3775L25.2371 76.2807C25.0581 76.1927 24.8834 76.1003 24.7066 76.0079L24.3529 75.8209C24.139 75.7051 23.9272 75.5856 23.7175 75.4623L23.5036 75.3413C23.2245 75.1753 22.9479 75.0052 22.6739 74.8309C22.5975 74.7825 22.5254 74.7297 22.4512 74.6813L21.8617 74.2853C21.7962 74.2413 21.7351 74.1973 21.6718 74.1533L21.115 73.7463L20.8683 73.5593L20.3661 73.1633L20.1412 72.9829L19.5146 72.4505C19.4928 72.4285 19.471 72.4131 19.4491 72.3933C19.2264 72.1733 19.0081 71.9929 18.7898 71.7905L18.6042 71.6101L18.1304 71.1437L17.9448 70.9567C17.7478 70.7539 17.5541 70.5478 17.364 70.3385C17.1542 70.1073 16.9482 69.8726 16.7462 69.6345L16.5933 69.4497L16.1698 68.9217L16.0169 68.7017L15.5279 68.0461C11.135 61.9917 9.5477 53.6229 13.1 46.7501L9.94944 50.7475ZM22.4075 45.8591C19.5103 50.0391 19.6675 55.6865 21.9272 60.1283C22.3057 60.8752 22.7338 61.5956 23.2088 62.2843C23.6455 62.9113 24.1258 63.6571 24.7 64.1609L25.3507 64.8209L25.521 64.9903L26.1847 65.6129L26.2175 65.6415L26.9925 66.2883L27.1672 66.4269L27.9794 67.0209L28.5471 67.4015L29.1475 67.7755L29.2348 67.8261L29.7675 68.1253L29.9575 68.2243L30.3287 68.4179L30.3854 68.4443L31.1605 68.8095L31.3308 68.8799L31.9858 69.1395L32.2587 69.2407L32.8417 69.4453L33.1037 69.5333C33.3832 69.6213 33.6582 69.7533 33.9486 69.7797C48.911 72.2767 52.365 60.6717 52.365 60.6717C49.2516 65.1905 43.2213 67.3465 36.787 65.6657L35.9398 65.4193L35.6844 65.3357L35.0949 65.1289L34.8263 65.0277L34.1888 64.7681L34.0141 64.6955L33.2347 64.3303L32.8417 64.1103L32.6168 63.9937L32.0055 63.6417L31.4051 63.2721L30.8374 62.8915L30.0295 62.2975L29.8483 62.1523C27.01 59.9127 24.7983 56.8723 23.735 53.3787C22.6433 49.7773 22.8617 45.7359 24.7896 42.4557L22.4075 45.8591ZM32.846 42.2071C31.1387 44.7371 30.9684 47.8831 32.1561 50.6837C33.405 53.6537 35.9682 55.9637 38.9572 57.0637L39.3284 57.1957L39.4921 57.2485L40.0249 57.4025C48.2866 59.0085 50.5049 53.1301 51.1227 52.2655C49.1577 55.1123 45.8827 55.7965 41.813 54.8065C41.4817 54.7183 41.1539 54.617 40.8305 54.5029C40.4344 54.3615 40.0459 54.1992 39.6668 54.0167C38.9474 53.6679 38.2643 53.2478 37.6275 52.7627C34.0032 49.9907 31.7325 44.7107 34.1189 40.4097" fill="#0868AC"/>
</svg>
