<svg width="114" height="114" viewBox="0 0 114 114" fill="none" xmlns="http://www.w3.org/2000/svg">
<path d="M0 0H114V114H0V0Z" fill="#F7DF1E"/>
<path d="M29.9749 95.2666L38.6986 89.987C40.3818 92.971 41.9128 95.4959 45.5853 95.4959C49.1055 95.4959 51.3254 94.119 51.3254 88.7628V52.3371H62.0383V88.9142C62.0383 100.01 55.534 105.061 46.0444 105.061C37.4744 105.061 32.4998 100.622 29.9744 95.2657L29.9749 95.2666ZM67.8572 94.1186L76.58 89.0683C78.8764 92.8182 81.8609 95.5729 87.1405 95.5729C91.5799 95.5729 94.4103 93.3535 94.4103 90.2924C94.4103 86.6195 91.5024 85.3183 86.6048 83.1763L83.9272 82.0274C76.1979 78.7379 71.071 74.6054 71.071 65.8817C71.071 57.8465 77.1927 51.7244 86.7585 51.7244C93.5691 51.7244 98.4666 54.097 101.986 60.2953L93.6448 65.6524C91.8079 62.362 89.8191 61.0612 86.758 61.0612C83.6203 61.0612 81.6307 63.0509 81.6307 65.6524C81.6307 68.8662 83.6204 70.1679 88.2115 72.1575L90.8896 73.3051C99.9963 77.2083 105.123 81.1871 105.123 90.1397C105.123 99.7825 97.5475 105.062 87.3699 105.062C77.422 105.062 70.994 100.318 67.8567 94.119" fill="black"/>
</svg>
