<svg width="22" height="24" viewBox="0 0 22 24" fill="none" xmlns="http://www.w3.org/2000/svg">
<path d="M15 22.3572V18.4692C15.0375 17.9901 14.9731 17.5085 14.811 17.0564C14.6489 16.6043 14.3929 16.1921 14.06 15.847C17.2 15.4954 20.5 14.2999 20.5 8.81449C20.4997 7.41183 19.9627 6.06296 19 5.04705C19.4559 3.81988 19.4236 2.46344 18.91 1.25952C18.91 1.25952 17.73 0.907895 15 2.74641C12.708 2.12234 10.292 2.12234 8 2.74641C5.27 0.907895 4.09 1.25952 4.09 1.25952C3.57638 2.46344 3.54414 3.81988 4 5.04705C3.03013 6.07049 2.49252 7.43155 2.5 8.84463C2.5 14.2898 5.8 15.4854 8.94 15.8772C8.611 16.2187 8.35726 16.6261 8.19531 17.0726C8.03335 17.5192 7.96681 17.9951 8 18.4692V22.3572M8 19.3432C3 20.8502 3 16.8316 1 16.3293L8 19.3432Z" stroke="#737373" stroke-width="2" stroke-linecap="round" stroke-linejoin="round"/>
</svg>
