<svg width="22" height="23" viewBox="0 0 22 23" fill="none" xmlns="http://www.w3.org/2000/svg">
<path d="M16 1H6C3.23858 1 1 3.24899 1 6.02327V16.0698C1 18.8441 3.23858 21.0931 6 21.0931H16C18.7614 21.0931 21 18.8441 21 16.0698V6.02327C21 3.24899 18.7614 1 16 1Z" stroke="#737373" stroke-width="2" stroke-linecap="round" stroke-linejoin="round"/>
<path d="M15 10.4136C15.1234 11.2497 14.9813 12.1036 14.5938 12.8539C14.2063 13.6042 13.5932 14.2126 12.8416 14.5926C12.0901 14.9726 11.2385 15.1049 10.4078 14.9706C9.57714 14.8363 8.80977 14.4423 8.21485 13.8446C7.61993 13.2469 7.22774 12.476 7.09408 11.6415C6.96042 10.807 7.09208 9.95134 7.47034 9.19632C7.8486 8.44131 8.4542 7.82534 9.201 7.43604C9.9478 7.04674 10.7978 6.90392 11.63 7.02791C12.4789 7.15438 13.2649 7.5518 13.8717 8.16146C14.4786 8.77113 14.8741 9.56072 15 10.4136Z" stroke="#737373" stroke-width="2" stroke-linecap="round" stroke-linejoin="round"/>
<path d="M16.5 5.521H16.51" stroke="#737373" stroke-width="2" stroke-linecap="round" stroke-linejoin="round"/>
</svg>
