<svg width="22" height="22" viewBox="0 0 22 22" fill="none" xmlns="http://www.w3.org/2000/svg">
<path d="M15 7.70703C16.5913 7.70703 18.1174 8.34211 19.2426 9.47256C20.3679 10.603 21 12.1362 21 13.7349V20.7675H17V13.7349C17 13.202 16.7893 12.6909 16.4142 12.3141C16.0391 11.9373 15.5304 11.7256 15 11.7256C14.4696 11.7256 13.9609 11.9373 13.5858 12.3141C13.2107 12.6909 13 13.202 13 13.7349V20.7675H9V13.7349C9 12.1362 9.63214 10.603 10.7574 9.47256C11.8826 8.34211 13.4087 7.70703 15 7.70703V7.70703Z" stroke="#737373" stroke-width="2" stroke-linecap="round" stroke-linejoin="round"/>
<path d="M5 8.71167H1V20.7675H5V8.71167Z" stroke="#737373" stroke-width="2" stroke-linecap="round" stroke-linejoin="round"/>
<path d="M3 5.69769C4.10457 5.69769 5 4.79811 5 3.68842C5 2.57872 4.10457 1.67914 3 1.67914C1.89543 1.67914 1 2.57872 1 3.68842C1 4.79811 1.89543 5.69769 3 5.69769Z" stroke="#737373" stroke-width="2" stroke-linecap="round" stroke-linejoin="round"/>
</svg>
