<svg width="25" height="19" viewBox="0 0 25 19" fill="none" xmlns="http://www.w3.org/2000/svg">
<path d="M22.5406 3.90106C22.4218 3.42426 22.1799 2.98739 21.8392 2.63459C21.4986 2.28179 21.0713 2.02555 20.6006 1.89174C18.8806 1.46979 12.0006 1.46979 12.0006 1.46979C12.0006 1.46979 5.12057 1.46979 3.40057 1.93193C2.92982 2.06573 2.50255 2.32198 2.16192 2.67478C1.82129 3.02758 1.57936 3.46444 1.46057 3.94124C1.14579 5.69492 0.991808 7.47392 1.00057 9.25587C0.989351 11.0512 1.14334 12.8438 1.46057 14.6107C1.59153 15.0727 1.83888 15.4929 2.17872 15.8308C2.51855 16.1687 2.93939 16.4129 3.40057 16.5396C5.12057 17.0018 12.0006 17.0018 12.0006 17.0018C12.0006 17.0018 18.8806 17.0018 20.6006 16.5396C21.0713 16.4058 21.4986 16.1496 21.8392 15.7968C22.1799 15.444 22.4218 15.0071 22.5406 14.5303C22.8529 12.7898 23.0069 11.0244 23.0006 9.25587C23.0118 7.46051 22.8578 5.66794 22.5406 3.90106V3.90106Z" stroke="#737373" stroke-width="2" stroke-linecap="round" stroke-linejoin="round"/>
<path d="M9.75055 12.541L15.5005 9.2558L9.75055 5.97058V12.541Z" stroke="#737373" stroke-width="2" stroke-linecap="round" stroke-linejoin="round"/>
</svg>
