<svg width="120" height="143" viewBox="0 0 120 143" fill="none" xmlns="http://www.w3.org/2000/svg">
<path d="M6.1425 135.478C3.70312 135.478 2.99391 134.049 2.99391 131.908C2.99391 131.195 3.08297 130.39 3.19266 129.542C3.72703 125.84 5.03156 123.722 8.18016 123.722C10.3097 123.722 11.348 124.68 11.348 126.42V127.268H13.4606C13.4841 127.268 13.4841 126.487 13.4841 126.31C13.4841 123.767 11.9536 121.356 8.18344 121.356C3.06047 121.356 0.953906 124.155 0.177656 129.643C0.0665625 130.38 0 131.068 0 131.801C0 135.036 1.26516 137.979 5.78859 137.979C9.22547 137.979 11.2669 136.293 12.4636 134.218L10.4452 132.85C9.13734 134.926 7.71703 135.478 6.1425 135.478ZM20.0034 125.26C15.9 125.26 14.1272 127.379 13.5286 131.594C13.4583 132.082 13.4207 132.574 13.4161 133.067C13.4161 135.788 14.6803 137.954 18.1833 137.954C22.2867 137.954 24.0834 135.744 24.682 131.594C24.7486 131.06 24.7931 130.569 24.7931 130.078C24.7941 127.313 23.4862 125.26 20.0034 125.26ZM21.7111 131.596C21.2672 134.653 20.3147 135.59 18.517 135.59C17.0766 135.59 16.3673 134.987 16.3673 133.18C16.3673 132.734 16.4123 132.199 16.5005 131.596C16.9444 128.562 17.8312 127.625 19.6495 127.625C21.1134 127.625 21.8442 128.227 21.8442 130.057C21.8442 130.503 21.7992 131.016 21.7111 131.596ZM35.108 121.577L34.4212 125.673C34.3772 126.029 34.3997 125.91 34.5337 126.245C33.8906 125.755 32.7366 125.43 31.9603 125.43C28.2787 125.43 26.2172 127.107 25.5525 131.791C25.4749 132.286 25.4377 132.786 25.4414 133.287C25.4414 136.701 27.4369 137.974 30.1195 137.974C31.252 137.974 32.3602 137.997 33.2241 137.262L33.4448 138.65H35.5744L38.0578 121.577H35.108ZM33.0014 134.942C32.0044 135.543 31.0294 135.678 30.4308 135.678C28.8117 135.678 28.3683 134.83 28.3683 133.47C28.3683 132.957 28.4348 132.356 28.5244 131.707C29.0334 128.16 30.165 127.535 31.6289 127.535C32.5814 127.535 33.3127 127.692 34.0017 128.072L33.0014 134.942ZM44.5341 125.26C40.4747 125.26 38.5692 127.2 37.9252 131.594C37.8577 132.13 37.8131 132.644 37.8131 133.134C37.8131 136.146 39.3441 137.954 42.7134 137.954C45.3305 137.954 47.2838 136.86 48.3253 134.852L46.0852 133.937C45.443 134.918 44.5781 135.587 43.0477 135.587C41.407 135.587 40.7414 135.143 40.7414 133.67C40.7414 133.38 40.7639 132.958 40.8084 132.958H48.8128C48.9253 131.82 49.0566 131.015 49.0566 130.348C49.0566 128.118 48.2147 125.26 44.5341 125.26V125.26ZM46.0636 130.683H41.1848C41.6738 129.544 42.4927 127.783 44.1787 127.783C45.4866 127.783 46.1306 128.552 46.1306 129.868C46.1292 130.091 46.1091 130.683 46.0636 130.683ZM57.5906 124.992L57.8564 122.716H51.6019L51.337 124.992H52.9777L51.2048 136.373H49.5619L49.2975 138.65H55.5506L55.8178 136.373H54.1758L55.9491 124.992H57.5906ZM70.2984 128.406L71.0977 126.13H68.9466L67.3955 126.452C66.5302 125.896 65.3545 125.478 64.2469 125.478C61.0744 125.478 58.3702 127.019 58.3702 130.522C58.3702 131.505 58.7245 132.298 59.145 132.834C58.4813 133.19 57.9042 133.786 57.9042 134.591C57.9042 134.947 58.0364 135.312 58.3036 135.646C56.9719 136.451 56.1539 137.784 56.1539 139.344C56.1539 142.357 59.28 143 61.6748 143C64.6903 143 68.2838 142.307 68.2838 138.447C68.2838 137.132 67.4634 136.104 65.0906 135.658L60.8109 134.853C60.3234 134.763 60.2123 134.607 60.2123 134.384C60.2123 134.049 60.4139 133.872 60.7448 133.872L61.0336 133.916C61.6102 134.05 62.2758 134.117 62.9625 134.117C66.0459 134.117 68.7952 132.778 68.7952 129.298C68.7952 128.807 68.707 128.475 68.4853 127.938C68.8617 128.118 69.3506 128.408 69.5484 128.408H70.2984V128.406ZM64.2014 137.64C65.0433 137.797 65.3311 138.109 65.3311 138.667C65.3311 140.474 63.4017 140.697 62.0053 140.697C59.8763 140.697 59.0784 140.185 59.0784 139.046C59.0784 138.042 59.3658 137.574 60.0323 136.86L64.2014 137.64ZM63.2906 131.797C62.0044 131.797 61.2947 131.329 61.2947 130.213C61.2947 128.562 62.2486 127.603 63.9117 127.603C65.2425 127.603 65.8861 128.16 65.8861 129.252C65.8861 130.903 64.9538 131.797 63.2906 131.797ZM78.1767 125.26C76.9345 125.26 75.8269 125.873 74.4511 126.966L74.2519 126.13H71.8116L70.1044 138.65H73.0538L74.3405 129.155C75.2058 128.62 76.2694 127.843 77.1787 127.843C78.2869 127.843 78.6872 128.381 78.6872 129.407C78.6872 129.652 78.6637 130.38 78.6192 130.647L77.5341 138.65H80.4839L81.5691 130.582C81.6141 130.205 81.6581 129.583 81.6581 129.227C81.6595 127.105 80.6602 125.26 78.1767 125.26ZM87.2611 135.513L87.2836 135.207L88.5689 126.13H83.6677L83.3587 128.406H85.5084C85.3308 128.406 85.2202 128.606 85.1986 128.785L84.3112 134.83C84.2672 135.121 84.2456 135.727 84.2456 135.971C84.2456 137.532 85.0875 138.65 86.8162 138.65H88.3247L88.6575 136.373H87.7045C87.3708 136.373 87.2611 135.781 87.2611 135.513ZM89.1675 121.577H86.2847C86.107 121.577 86.107 120.92 86.0855 121.143L85.6852 124.351C85.6622 124.553 85.6622 124.992 85.8398 124.992H88.7241C88.9017 124.992 88.9017 124.212 88.9233 124.009L89.3236 121.534C89.3461 121.311 89.3461 121.577 89.1675 121.577ZM95.182 135.589C94.4512 135.589 94.0959 135.277 94.0959 134.608L94.1184 134.563L95.0498 128.406H98.4202L99.4397 126.13H95.3597L96.0464 121.121L92.9433 122.119L92.3878 126.13H90.592L90.2822 128.406H92.3662C92.167 129.544 91.9669 128.806 91.9453 129.03L91.1466 134.428C91.1025 134.674 91.1025 134.853 91.1025 135.075C91.1025 137.194 92.6545 137.987 94.5192 137.987C96.248 137.987 97.6453 137.48 98.7328 136.563L97.357 134.861C96.668 135.284 96.203 135.589 95.182 135.589ZM106.004 125.26C101.946 125.26 100.039 127.2 99.3956 131.594C99.3291 132.13 99.2845 132.644 99.2845 133.134C99.2845 136.146 100.815 137.954 104.185 137.954C106.802 137.954 108.755 136.86 109.796 134.852L107.557 133.937C106.914 134.918 106.049 135.587 104.518 135.587C102.878 135.587 102.211 135.143 102.211 133.67C102.211 133.38 102.235 132.958 102.28 132.958H110.285C110.395 131.82 110.528 131.015 110.528 130.348C110.528 128.118 109.686 125.26 106.004 125.26V125.26ZM107.535 130.683H102.656C103.144 129.544 103.963 127.783 105.65 127.783C106.958 127.783 107.602 128.552 107.602 129.868C107.601 130.091 107.579 130.683 107.535 130.683ZM118.69 125.26C117.625 125.26 116.627 125.874 115.629 126.831L115.452 126.13H113.013L111.305 138.65H114.277L115.585 128.955C116.362 128.487 117.248 128.088 118.091 128.088C118.624 128.088 119.133 128.002 119.621 128.069L120 125.483C119.554 125.393 119.111 125.26 118.69 125.26V125.26ZM43.3781 112.61C36.6656 109.691 30.3844 102.273 30.3694 94.6821C30.3511 86.4065 35.5645 79.3805 42.0488 74.7631C41.2692 77.7258 40.8441 80.4358 42.7753 83.0859C44.5706 85.5497 47.715 86.747 50.6841 86.0972C57.6216 84.5694 57.9398 76.8973 53.827 72.4275C49.7606 68.0011 45.8269 63.0013 47.3747 56.5822C48.1495 53.3644 50.1136 50.3502 52.6017 48.1957C50.6892 53.2517 56.1239 58.2378 59.7047 60.7214C65.9161 65.0304 72.7312 68.2869 78.4425 73.3381C84.45 78.6467 88.8862 85.8246 87.9905 94.1498C87.0197 103.173 79.8919 109.449 71.8969 112.617C88.7916 108.866 106.248 95.6757 106.606 76.827C106.902 61.3203 96.3277 49.3864 83.2284 42.5542L82.5441 42.1783C82.9036 43.0559 83.0212 43.8023 83.0077 44.4705C83.1248 43.9778 83.2045 43.4713 83.227 42.9489C83.2238 43.5695 83.1432 44.1874 82.987 44.7879L83.0077 44.4705C82.8131 45.2938 82.4855 46.0793 82.0378 46.7957L82.23 46.5878C79.6167 50.9482 72.5419 51.895 69.0469 47.38C63.4284 40.1172 69.1645 32.2867 69.967 24.5958C70.9716 14.957 64.9627 5.59961 57.5123 0C61.6158 6.67756 56.2097 15.512 51.8845 20.4509C47.6906 25.2385 42.5902 29.2358 37.9603 33.5858C32.9869 38.2579 28.2056 43.1794 24.1177 48.663C15.9417 59.6387 10.9364 73.4428 14.6147 87.1355C18.2906 100.819 30.0731 109.529 43.3786 112.609L43.3781 112.61Z" fill="#EE4323"/>
</svg>
